# xmcd
# 
# Track frame offsets:
#   150
#   23105
#   41170
#   58827
#   76007
#   95487
#   112482
#   128712
#   144712
#   160587
#   179640
#   193562
#   209327
#   226192
# 
# Disc length: 3184 seconds
# 
# Revision: 0
# Processed by: cddbd v1.5.1PL2 Copyright (c) Steve Scherf et al.
# Submitted via: Synapstar 1.0 
# 
DISCID=c40c6e0e
DTITLE=Various Artist - SD-Country hits
DYEAR=1900
DGENRE=Country
TTITLE0=Shania Twain and Bryan White - From this Moment On
TTITLE1=Trisha yearwood - There Goes My Baby
TTITLE2=Garth Brooks - To Make You Feel My Love
TTITLE3=Collin Raye - I Can Still Feel You
TTITLE4=Wynonna - Always Will
TTITLE5=Ty Herndon - A Man Holdin' On
TTITLE6=Trace Adkins - Big Time
TTITLE7=The kinleys - Dance In The Boat
TTITLE8=Martina McBride - Happy Girl
TTITLE9=LaAnn Rimes - Looking Through Your Eyes
TTITLE10=Gary Allan - It Would Be You
TTITLE11=Daryle Singletary - That's Where Your Wrong
TTITLE12=David Kersh - Wonderful Tonight
TTITLE13=Joe Diffie - Texas Size Heartache
EXTD=MediaType: Karaoke CD+G Producer: StarDisc
EXTT0=
EXTT1=
EXTT2=
EXTT3=
EXTT4=
EXTT5=
EXTT6=
EXTT7=
EXTT8=
EXTT9=
EXTT10=
EXTT11=
EXTT12=
EXTT13=
PLAYORDER=
